<?xml version="1.0" encoding="UTF-8" standalone="no"?><!DOCTYPE svg PUBLIC "-//W3C//DTD SVG 1.1//EN" "http://www.w3.org/Graphics/SVG/1.1/DTD/svg11.dtd"><svg width="100%" height="100%" viewBox="0 0 497 642" version="1.1" xmlns="http://www.w3.org/2000/svg" xmlns:xlink="http://www.w3.org/1999/xlink" xml:space="preserve" xmlns:serif="http://www.serif.com/" style="fill-rule:evenodd;clip-rule:evenodd;stroke-linejoin:round;stroke-miterlimit:2;"><g id="Group"><g id="Oval_Copy_2"><path id="Oval" d="M298.486,34.845c109.066,19.231 182.649,119.717 164.216,224.257c-18.433,104.539 -121.947,173.799 -231.013,154.567c-109.066,-19.231 -182.648,-119.717 -164.215,-224.257c18.433,-104.539 121.946,-173.799 231.012,-154.567Z" style="fill:#100000;"/></g><g id="Group_35"><path id="Fill_1" d="M323.039,182.629c-23.78,37.035 -42.386,77.149 -55.299,119.225c-26.436,87.492 -18.48,158.664 -7.154,202.966c0.37,1.663 -0.658,3.343 -2.306,3.77c-1.541,0.491 -3.216,-0.349 -3.742,-1.878c-0.021,-0.061 -0.04,-0.122 -0.057,-0.183c-11.505,-44.998 -19.582,-117.289 7.228,-206.103c13.703,-44.569 33.678,-86.961 59.324,-125.902l2.006,8.105Z" style="fill:#003910;fill-rule:nonzero;"/><path id="Fill_3" d="M263.85,506.553c15.084,14.387 27.108,31.672 35.352,50.816c7.857,19.386 11.755,40.149 11.465,61.064c-15.082,-14.387 -27.107,-31.672 -35.351,-50.816c-7.857,-19.385 -11.756,-40.149 -11.466,-61.064" style="fill:#003910;fill-rule:nonzero;"/><path id="Fill_5" d="M261.214,470.809c21.726,6.279 42.017,16.742 59.732,30.8c17.528,14.471 32.102,32.187 42.922,52.177c-21.724,-6.279 -42.014,-16.741 -59.728,-30.797c-17.531,-14.471 -32.106,-32.188 -42.926,-52.18" style="fill:#003910;fill-rule:nonzero;"/><path id="Fill_7" d="M255.847,426.866c20.692,2.885 40.601,9.871 58.559,20.547c18.209,11.295 34.14,25.905 46.965,43.071c-20.688,-2.887 -40.594,-9.872 -58.549,-20.547c-18.213,-11.293 -34.148,-25.903 -46.975,-43.071" style="fill:#003910;fill-rule:nonzero;"/><path id="Fill_9" d="M253.221,391.125c21.167,0.946 41.952,5.976 61.208,14.814c18.951,9.154 35.919,21.945 49.937,37.644c-21.166,-0.945 -41.95,-5.976 -61.205,-14.815c-18.952,-9.153 -35.921,-21.944 -49.94,-37.643" style="fill:#003910;fill-rule:nonzero;"/><path id="Fill_11" d="M267.325,349.467c21.567,-0.932 43.12,2.146 63.564,9.076c19.703,7.089 37.792,18.046 53.2,32.225c-21.567,0.932 -43.12,-2.146 -63.564,-9.076c-19.703,-7.089 -37.792,-18.046 -53.2,-32.225" style="fill:#003910;fill-rule:nonzero;"/><path id="Fill_13" d="M389.823,352.063c-18.45,-2.627 -36.491,-7.59 -53.689,-14.767c-21.193,-9.135 -40.636,-21.889 -57.456,-37.691c23.708,1.7 46.984,7.231 68.921,16.377c12.984,5.62 25.336,12.597 36.85,20.817l5.374,15.264Z" style="fill:#003910;fill-rule:nonzero;"/><path id="Fill_15" d="M373.626,311.94c-10.049,-3.631 -19.765,-8.127 -29.037,-13.435c-21.26,-12.445 -39.811,-29.026 -54.555,-48.761c25.115,3.506 49.357,11.669 71.477,24.071c0.876,0.507 1.743,1.02 2.603,1.537l9.512,36.588Z" style="fill:#003910;fill-rule:nonzero;"/><path id="Fill_17" d="M348.336,256.691c-13.1,-12.742 -24.246,-27.35 -33.075,-43.35c7.403,2.268 14.614,5.122 21.564,8.535l11.511,34.815Z" style="fill:#003910;fill-rule:nonzero;"/><path id="Fill_19" d="M252.883,473.759c1.387,22.568 -1.531,45.196 -8.597,66.675c-7.465,21.403 -18.91,41.203 -33.729,58.356c-1.386,-22.568 1.532,-45.196 8.596,-66.675c7.467,-21.403 18.911,-41.203 33.73,-58.356" style="fill:#003910;fill-rule:nonzero;"/><path id="Fill_21" d="M255.893,426.862c-4.957,22.221 -14.079,43.303 -26.882,62.129c-13.161,18.642 -29.712,34.643 -48.789,47.165c4.957,-22.222 14.079,-43.304 26.883,-62.13c13.163,-18.644 29.719,-34.646 48.8,-47.168" style="fill:#003910;fill-rule:nonzero;"/><path id="Fill_23" d="M253.287,391.169c-8.211,20.43 -20.604,38.918 -36.381,54.276c-16.094,14.903 -35.154,26.242 -55.93,33.273c8.212,-20.429 20.606,-38.918 36.385,-54.274c16.092,-14.904 35.15,-26.243 55.926,-33.275" style="fill:#003910;fill-rule:nonzero;"/><path id="Fill_25" d="M266.424,346.598c-13.791,18.997 -31.405,34.9 -51.708,46.685c-20.477,11.213 -43.098,17.964 -66.371,19.807c13.792,-18.996 31.406,-34.899 51.708,-46.685c20.48,-11.216 43.106,-17.968 66.383,-19.811" style="fill:#003910;fill-rule:nonzero;"/><path id="Fill_27" d="M277.301,295.298c-18.645,15.578 -39.849,27.808 -62.671,36.146c-22.823,7.986 -46.871,11.909 -71.049,11.591c18.645,-15.577 39.848,-27.807 62.668,-36.145c22.828,-7.99 46.88,-11.914 71.064,-11.596" style="fill:#003910;fill-rule:nonzero;"/><path id="Fill_29" d="M291.3,253.336c-20.921,13.29 -44.236,22.37 -68.634,26.729c-24.332,3.844 -49.186,2.828 -73.123,-2.987c20.924,-13.293 44.243,-22.374 68.646,-26.734c24.328,-3.841 49.178,-2.824 73.111,2.992" style="fill:#003910;fill-rule:nonzero;"/><path id="Fill_31" d="M314.515,210.953c-21.992,12.252 -46.328,19.716 -71.408,21.901c-25.344,1.577 -50.743,-2.11 -74.594,-10.826c21.992,-12.249 46.328,-19.71 71.407,-21.892c25.344,-1.58 50.743,2.103 74.595,10.817" style="fill:#003910;fill-rule:nonzero;"/><path id="Fill_33" d="M329.403,171.648c-23.138,8.41 -47.639,12.445 -72.252,11.899c-24.098,-0.971 -47.776,-6.643 -69.698,-16.694c23.139,-8.409 47.641,-12.445 72.255,-11.901c24.097,0.973 47.773,6.645 69.695,16.696" style="fill:#003910;fill-rule:nonzero;"/></g></g></svg>