<svg id="Salesforce_Corporate_Logo_4C" xmlns="http://www.w3.org/2000/svg" xmlns:xlink="http://www.w3.org/1999/xlink" width="102.169" height="71" viewBox="0 0 102.169 71">
  <defs>
    <clipPath id="clip-path">
      <path id="Clip_2" data-name="Clip 2" d="M0,0H101.834V70.792H0Z" fill="none"/>
    </clipPath>
  </defs>
  <g id="Salesforce_Corporate_Logo_4C_2" data-name="Salesforce_Corporate_Logo_4C 2" transform="translate(0.022 0.186)">
    <g id="Salesforce_Corporate_Logo_4C-2" data-name="Salesforce_Corporate_Logo_4C">
      <g id="Group_3" data-name="Group 3">
        <path id="Clip_2-2" data-name="Clip 2" d="M0,0H101.834V70.792H0Z" fill="none"/>
        <g id="Group_3-2" data-name="Group 3" clip-path="url(#clip-path)">
          <path id="Fill_1" data-name="Fill 1" d="M42.386,7.723a17.939,17.939,0,0,1,28.63,3.745,22,22,0,1,1,4.556,41.7A16.118,16.118,0,0,1,54.539,59.73,18.359,18.359,0,0,1,20.5,58.908,17.066,17.066,0,0,1,8.5,27.428a19.422,19.422,0,0,1-1.628-7.8,19.816,19.816,0,0,1,35.513-11.9" transform="translate(-0.022)" fill="#0091c6"/>
        </g>
      </g>
      <path id="Fill_4" data-name="Fill 4" d="M.025,8.084c-.068.162.024.2.046.225a6.766,6.766,0,0,0,.616.342,7.069,7.069,0,0,0,3.225.691c2.213,0,3.587-1.08,3.587-2.819V6.488C7.5,4.88,5.947,4.3,4.493,3.874L4.3,3.818c-1.1-.327-2.043-.61-2.043-1.273V2.511c0-.568.553-.985,1.41-.985a6.832,6.832,0,0,1,2.811.66s.215.127.293-.063c.042-.1.411-1.013.45-1.112A.183.183,0,0,0,7.117.782,6.694,6.694,0,0,0,3.947,0H3.726C1.7,0,.287,1.125.287,2.734v.035c0,1.7,1.56,2.247,3.021,2.63l.235.067c1.064.3,1.983.559,1.983,1.246v.034c0,.63-.6,1.1-1.559,1.1a5.587,5.587,0,0,1-2.85-.753C.961,7.007.872,6.947.752,6.88a.182.182,0,0,0-.291.092L.025,8.084" transform="translate(14.038 28.775)" fill="#fffffe"/>
      <path id="Fill_5" data-name="Fill 5" d="M.024,8.084c-.067.162.024.2.047.225a6.7,6.7,0,0,0,.615.342,7.071,7.071,0,0,0,3.225.691c2.213,0,3.587-1.08,3.587-2.819V6.488C7.5,4.88,5.948,4.3,4.493,3.874L4.3,3.818c-1.1-.327-2.043-.61-2.043-1.273V2.511c0-.568.554-.985,1.411-.985a6.83,6.83,0,0,1,2.81.66s.215.127.293-.063c.042-.1.411-1.013.449-1.112A.183.183,0,0,0,7.117.782,6.7,6.7,0,0,0,3.947,0H3.726C1.7,0,.287,1.125.287,2.734v.035c0,1.7,1.559,2.247,3.021,2.63l.234.067c1.064.3,1.984.559,1.984,1.246v.034c0,.63-.6,1.1-1.559,1.1a5.586,5.586,0,0,1-2.85-.753C.961,7.007.87,6.95.752,6.88a.2.2,0,0,0-.29.092L.024,8.084" transform="translate(44.97 28.775)" fill="#fffffe"/>
      <path id="Fill_6" data-name="Fill 6" d="M4.218,9.342a4.5,4.5,0,0,1-1.851-.358A3.7,3.7,0,0,1,1.04,8,4.1,4.1,0,0,1,.254,6.513,6.374,6.374,0,0,1,0,4.68,6.386,6.386,0,0,1,.254,2.846,4.1,4.1,0,0,1,1.04,1.364a3.789,3.789,0,0,1,1.326-1A4.409,4.409,0,0,1,4.218,0,4.409,4.409,0,0,1,6.07.367a3.8,3.8,0,0,1,1.326,1,4.115,4.115,0,0,1,.786,1.483A6.394,6.394,0,0,1,8.436,4.68a6.391,6.391,0,0,1-.254,1.833A4.119,4.119,0,0,1,7.4,8a3.7,3.7,0,0,1-1.327.988A4.5,4.5,0,0,1,4.218,9.342Zm0-7.776a1.852,1.852,0,0,0-1.674.8A4.175,4.175,0,0,0,2,4.68,4.213,4.213,0,0,0,2.545,7a1.843,1.843,0,0,0,1.673.811A1.868,1.868,0,0,0,5.9,7a4.175,4.175,0,0,0,.553-2.32A4.13,4.13,0,0,0,5.9,2.369,1.875,1.875,0,0,0,4.218,1.566Z" transform="translate(59.967 28.775)" fill="#fffffe"/>
      <path id="Fill_7" data-name="Fill 7" d="M7.035,7.551a.178.178,0,0,0-.233-.1,4.41,4.41,0,0,1-.85.227,6.948,6.948,0,0,1-1,.067,2.894,2.894,0,0,1-2.089-.731,3.122,3.122,0,0,1-.785-2.332,3.45,3.45,0,0,1,.7-2.246A2.458,2.458,0,0,1,4.8,1.6a6.515,6.515,0,0,1,1.932.258.162.162,0,0,0,.212-.118c.16-.415.279-.71.45-1.166a.153.153,0,0,0-.114-.2A7.544,7.544,0,0,0,6.065.086,9.839,9.839,0,0,0,4.694,0,5.294,5.294,0,0,0,2.658.366a4.225,4.225,0,0,0-1.471.995A4.138,4.138,0,0,0,.3,2.843,5.524,5.524,0,0,0,0,4.679a4.711,4.711,0,0,0,1.215,3.4A4.8,4.8,0,0,0,4.822,9.342,7.918,7.918,0,0,0,7.41,8.911a.152.152,0,0,0,.074-.2L7.035,7.551" transform="translate(74.964 28.775)" fill="#fffffe"/>
      <path id="Fill_8" data-name="Fill 8" d="M4.88,9.342A6.372,6.372,0,0,1,2.694,9,4.039,4.039,0,0,1,1.16,8.04,3.764,3.764,0,0,1,.277,6.573,5.9,5.9,0,0,1,0,4.729,6.165,6.165,0,0,1,.267,2.886a4.106,4.106,0,0,1,.826-1.5A4,4,0,0,1,2.5.371,5.039,5.039,0,0,1,4.511,0,4.682,4.682,0,0,1,6.257.335,3.571,3.571,0,0,1,8.2,2.524a5.889,5.889,0,0,1,.185,2.465l0,.022a.179.179,0,0,1-.178.15l-6.1,0a2.63,2.63,0,0,0,.709,1.921A2.994,2.994,0,0,0,4.9,7.757h.026a6.093,6.093,0,0,0,2.36-.385L7.4,7.33a.242.242,0,0,1,.069-.01.162.162,0,0,1,.161.111l.4,1.058c.079.176.018.238-.051.276a6.723,6.723,0,0,1-3.072.578ZM4.367,1.53a1.986,1.986,0,0,0-1.744.838A3.227,3.227,0,0,0,2.13,3.731H6.48a2.693,2.693,0,0,0-.4-1.363A1.922,1.922,0,0,0,4.367,1.53Z" transform="translate(83.4 28.775)" fill="#fffffe"/>
      <path id="Fill_9" data-name="Fill 9" d="M4.88,9.342A6.372,6.372,0,0,1,2.694,9,4.039,4.039,0,0,1,1.16,8.04,3.764,3.764,0,0,1,.277,6.573,5.9,5.9,0,0,1,0,4.729,6.191,6.191,0,0,1,.267,2.886a4.12,4.12,0,0,1,.827-1.5A4,4,0,0,1,2.5.371,5.039,5.039,0,0,1,4.511,0,4.682,4.682,0,0,1,6.257.335,3.571,3.571,0,0,1,8.2,2.524a5.889,5.889,0,0,1,.185,2.465l0,.022a.178.178,0,0,1-.177.15l-6.1,0a2.637,2.637,0,0,0,.709,1.921A2.993,2.993,0,0,0,4.9,7.757h.026a6.1,6.1,0,0,0,2.361-.385L7.4,7.33a.242.242,0,0,1,.069-.01.163.163,0,0,1,.162.111l.4,1.058c.079.176.018.238-.051.276a6.723,6.723,0,0,1-3.072.578ZM4.367,1.53a1.989,1.989,0,0,0-1.745.838A3.224,3.224,0,0,0,2.13,3.731H6.48a2.7,2.7,0,0,0-.4-1.363A1.922,1.922,0,0,0,4.367,1.53Z" transform="translate(35.596 28.775)" fill="#fffffe"/>
      <path id="Fill_10" data-name="Fill 10" d="M3.738,9.342A6.986,6.986,0,0,1,2.2,9.186a3.215,3.215,0,0,1-1.181-.51,2.388,2.388,0,0,1-.756-.9A3,3,0,0,1,0,6.456,2.693,2.693,0,0,1,1.152,4.175a3.749,3.749,0,0,1,1.211-.558,5.5,5.5,0,0,1,1.427-.182c.37,0,.675.009.905.026,0,0,.463.042.956.113V3.329a1.554,1.554,0,0,0-.477-1.376A2.351,2.351,0,0,0,3.74,1.581H3.726a5.887,5.887,0,0,0-2.512.585.8.8,0,0,1-.1.048.18.18,0,0,1-.054.008.137.137,0,0,1-.136-.1l-.411-1.1A.18.18,0,0,1,.57.793,5.643,5.643,0,0,1,2.357.142,9.666,9.666,0,0,1,3.911,0,3.955,3.955,0,0,1,6.573.8,3.221,3.221,0,0,1,7.5,3.346l0,5.277a.184.184,0,0,1-.132.189s-.217.059-.407.1S6.073,9.1,5.5,9.2A10.72,10.72,0,0,1,3.738,9.342ZM2.388,7.514a1.317,1.317,0,0,0,.343.173,3.171,3.171,0,0,0,1.09.173c.087,0,.177,0,.267-.008a12.1,12.1,0,0,0,1.567-.208V5.021a12,12,0,0,0-1.574-.133H4.015A3.358,3.358,0,0,0,2.781,5.1a1.393,1.393,0,0,0-.385.21A1.26,1.26,0,0,0,1.88,6.422a1.384,1.384,0,0,0,.174.751,1.141,1.141,0,0,0,.335.342Z" transform="translate(22.474 28.775)" fill="#fffffe"/>
      <path id="Fill_11" data-name="Fill 11" d="M5.612.394A.161.161,0,0,0,5.52.179,5.446,5.446,0,0,0,4.5.01,3.06,3.06,0,0,0,2.934.257,2.736,2.736,0,0,0,1.908,1V.273a.173.173,0,0,0-.175-.18H.174A.174.174,0,0,0,0,.273V9.161a.183.183,0,0,0,.185.181h1.6a.183.183,0,0,0,.184-.181V4.721a5.131,5.131,0,0,1,.2-1.564A2.225,2.225,0,0,1,2.7,2.281a1.852,1.852,0,0,1,.751-.443,3.015,3.015,0,0,1,.815-.113,3.5,3.5,0,0,1,.668.08.205.205,0,0,0,.222-.161c.1-.272.4-1.089.457-1.251" transform="translate(69.34 28.775)" fill="#fffffe"/>
      <path id="Fill_12" data-name="Fill 12" d="M10.191.194A5.105,5.105,0,0,0,9.607.06,4.726,4.726,0,0,0,8.8,0,3.449,3.449,0,0,0,6.3.868a4.651,4.651,0,0,0-1.187,2.59l-.072.387H3.7a.2.2,0,0,0-.2.166L3.285,5.2c-.015.114.035.185.193.184h1.3L3.459,12.533A8.733,8.733,0,0,1,3.1,13.941a2.852,2.852,0,0,1-.412.812,1.089,1.089,0,0,1-.541.4,2.258,2.258,0,0,1-.695.1,2.777,2.777,0,0,1-.474-.05,1.443,1.443,0,0,1-.319-.1.165.165,0,0,0-.213.092c-.049.121-.4,1.046-.438,1.161a.168.168,0,0,0,.091.228,4.526,4.526,0,0,0,.54.152,3.682,3.682,0,0,0,.865.08,4.451,4.451,0,0,0,1.45-.217,2.717,2.717,0,0,0,1.091-.737,3.762,3.762,0,0,0,.768-1.277,10.62,10.62,0,0,0,.519-1.919L6.668,5.384H8.613a.2.2,0,0,0,.2-.166l.22-1.188c.015-.114-.035-.185-.193-.184H6.95a7.535,7.535,0,0,1,.312-1.288,1.655,1.655,0,0,1,.414-.609,1.233,1.233,0,0,1,.495-.3A2.116,2.116,0,0,1,8.8,1.562a2.548,2.548,0,0,1,.485.047c.183.038.254.058.3.071.192.057.218,0,.256-.088L10.3.393a.152.152,0,0,0-.109-.2" transform="translate(50.594 25.038)" fill="#fffffe"/>
      <path id="Fill_13" data-name="Fill 13" d="M1.875,12.9a.171.171,0,0,1-.167.181H.167A.171.171,0,0,1,0,12.9V.18A.17.17,0,0,1,.167,0H1.708a.17.17,0,0,1,.167.18V12.9" transform="translate(32.784 25.038)" fill="#fffffe"/>
    </g>
  </g>
</svg>
